<svg
  width="20"
  height="16"
  viewBox="0 0 20 16"
  fill="none"
  xmlns="http://www.w3.org/2000/svg"
>
  <path
    d="M10 3.75C10 4.74456 9.60491 5.69839 8.90165 6.40165C8.19839 7.10491 7.24456 7.5 6.25 7.5C5.25544 7.5 4.30161 7.10491 3.59835 6.40165C2.89509 5.69839 2.5 4.74456 2.5 3.75C2.5 2.75544 2.89509 1.80161 3.59835 1.09835C4.30161 0.395088 5.25544 0 6.25 0C7.24456 0 8.19839 0.395088 8.90165 1.09835C9.60491 1.80161 10 2.75544 10 3.75ZM15.25 7.5C16.0456 7.5 16.8087 7.18393 17.3713 6.62132C17.9339 6.05871 18.25 5.29565 18.25 4.5C18.25 3.70435 17.9339 2.94129 17.3713 2.37868C16.8087 1.81607 16.0456 1.5 15.25 1.5C14.4544 1.5 13.6913 1.81607 13.1287 2.37868C12.5661 2.94129 12.25 3.70435 12.25 4.5C12.25 5.29565 12.5661 6.05871 13.1287 6.62132C13.6913 7.18393 14.4544 7.5 15.25 7.5ZM13.75 11.391V11.25C13.7511 10.4384 13.4878 9.6486 13 9H17.9095C18.9235 9 19.747 9.822 19.747 10.8375C19.747 10.8375 19.747 14.25 15.247 14.25C14.35 14.25 13.6315 14.115 13.057 13.8975C13.4153 13.2409 13.643 12.5212 13.7275 11.778C13.7365 11.685 13.7425 11.6055 13.7455 11.5395L13.75 11.391ZM12.25 11.25C12.25 10.6533 12.0129 10.081 11.591 9.65901C11.169 9.23705 10.5967 9 10 9H2.5C1.90326 9 1.33097 9.23705 0.90901 9.65901C0.487053 10.081 0.25 10.6533 0.25 11.25V11.3625C0.25 11.3625 0.25 15.75 6.25 15.75C11.968 15.75 12.2365 11.766 12.25 11.391V11.25Z"
    fill="#5C656C"
  />
</svg>