<svg version="1.1" id="Layer_1" xmlns="http://www.w3.org/2000/svg" xmlns:xlink="http://www.w3.org/1999/xlink" x="0px" y="0px"
	 width="100%" viewBox="0 0 1080 1080" enable-background="new 0 0 1080 1080" xml:space="preserve">
<path fill="#FF3D70" opacity="1.000000" stroke="none" 
	d="
M608.000000,1081.000000 
	C405.356659,1081.000000 203.213318,1081.000000 1.034993,1081.000000 
	C1.034993,721.064880 1.034993,361.129730 1.034993,1.097306 
	C360.893585,1.097306 720.787170,1.097306 1080.840332,1.097306 
	C1080.840332,360.999939 1080.840332,720.999939 1080.840332,1081.000000 
	C923.462646,1081.000000 765.981323,1081.000000 608.000000,1081.000000 
M832.259888,707.500061 
	C832.200073,649.849976 832.600037,592.194580 831.942566,534.551331 
	C831.362671,483.708801 798.815063,442.407349 749.899292,428.774017 
	C707.276672,416.894623 664.867432,418.323090 622.940735,431.959625 
	C593.185364,441.637390 568.119751,458.331268 549.744995,484.118164 
	C538.651367,499.686798 538.312988,519.384583 548.587952,533.692627 
	C560.211792,549.878723 578.508667,556.303833 597.430481,550.925903 
	C608.784973,547.698730 618.049133,541.046997 626.751465,533.397339 
	C635.043213,526.108582 643.684692,519.281494 654.357361,515.775818 
	C672.407043,509.847015 690.961792,508.701233 709.653931,511.243256 
	C721.494995,512.853577 732.346436,517.258240 739.368774,527.674500 
	C741.511658,530.853027 742.263977,534.969177 744.021423,539.633606 
	C740.647278,539.633606 739.007996,539.583679 737.372498,539.641113 
	C715.739502,540.401245 694.078979,540.722778 672.481384,542.060303 
	C644.215088,543.810852 616.727478,549.388489 590.768921,561.287964 
	C566.676392,572.332031 546.550232,587.972351 533.625610,611.528320 
	C523.465942,630.044800 521.135193,650.328430 522.087708,671.098694 
	C523.763000,707.629517 540.800110,734.534485 572.892090,752.035461 
	C600.163635,766.907776 629.679260,771.367493 660.228821,771.194092 
	C689.952148,771.025391 718.283203,764.150635 745.822876,753.436951 
	C747.965820,752.603271 749.825195,750.898743 752.295227,753.859253 
	C763.312744,767.064514 777.539856,772.121094 794.597534,769.963989 
	C816.341003,767.214355 831.252686,751.369751 832.094421,729.490540 
	C832.363342,722.501953 832.216492,715.497375 832.259888,707.500061 
M389.097260,544.500183 
	C389.097260,537.733337 389.097260,530.966431 389.097260,523.847473 
	C398.507080,523.847473 407.156067,523.869141 415.804962,523.843018 
	C434.469940,523.786621 453.141754,523.995667 471.797821,523.551819 
	C489.832581,523.122742 502.104462,514.299133 508.540710,497.149200 
	C515.003784,479.927826 511.045563,459.354004 498.000305,446.804901 
	C488.640015,437.800598 476.894806,435.264343 464.383057,435.285156 
	C441.383270,435.323364 418.383575,435.434326 395.383789,435.489319 
	C393.449921,435.493927 391.515594,435.305450 389.449005,435.199890 
	C389.449005,428.085602 389.016968,421.425446 389.532593,414.839447 
	C390.904724,397.313293 401.050995,386.668884 418.649475,384.928253 
	C429.560211,383.849091 440.592285,383.893433 451.574707,383.674011 
	C460.838959,383.488892 469.856781,382.322144 478.285522,378.245422 
	C493.727905,370.776428 498.725220,357.418365 499.260132,341.360718 
	C500.051147,317.614929 487.683258,300.791626 464.245636,298.021637 
	C431.721283,294.177826 399.259155,296.049377 368.013458,306.958221 
	C336.562347,317.938782 315.536316,339.532928 305.335327,371.417542 
	C299.685669,389.076355 298.313904,407.304749 298.100128,425.686646 
	C298.064331,428.764618 298.095093,431.843414 298.095093,435.260956 
	C288.687805,435.260956 280.195648,435.109558 271.711090,435.299683 
	C261.328125,435.532288 250.911652,436.321991 242.017426,442.404724 
	C228.525040,451.632111 220.623825,473.739258 224.588135,490.032593 
	C229.929214,511.984497 242.613022,522.627258 265.156372,523.622314 
	C274.306580,524.026184 283.485077,523.779602 292.650452,523.858337 
	C294.397339,523.873352 296.143036,524.025696 298.095001,524.125183 
	C298.095001,526.757812 298.094971,528.750000 298.094971,530.742126 
	C298.095093,594.575195 298.076660,658.408264 298.115967,722.241333 
	C298.121674,731.501953 299.723145,740.370422 304.349609,748.654968 
	C319.585480,775.937866 360.117554,779.326660 379.485077,754.822937 
	C386.753052,745.627502 389.158569,735.023926 389.140137,723.499329 
	C389.045227,664.166382 389.096802,604.833191 389.097260,544.500183 
z"/>
<path fill="#FFFEFE" opacity="1.000000" stroke="none" 
	d="
M832.259888,708.000122 
	C832.216492,715.497375 832.363342,722.501953 832.094421,729.490540 
	C831.252686,751.369751 816.341003,767.214355 794.597534,769.963989 
	C777.539856,772.121094 763.312744,767.064514 752.295227,753.859253 
	C749.825195,750.898743 747.965820,752.603271 745.822876,753.436951 
	C718.283203,764.150635 689.952148,771.025391 660.228821,771.194092 
	C629.679260,771.367493 600.163635,766.907776 572.892090,752.035461 
	C540.800110,734.534485 523.763000,707.629517 522.087708,671.098694 
	C521.135193,650.328430 523.465942,630.044800 533.625610,611.528320 
	C546.550232,587.972351 566.676392,572.332031 590.768921,561.287964 
	C616.727478,549.388489 644.215088,543.810852 672.481384,542.060303 
	C694.078979,540.722778 715.739502,540.401245 737.372498,539.641113 
	C739.007996,539.583679 740.647278,539.633606 744.021423,539.633606 
	C742.263977,534.969177 741.511658,530.853027 739.368774,527.674500 
	C732.346436,517.258240 721.494995,512.853577 709.653931,511.243256 
	C690.961792,508.701233 672.407043,509.847015 654.357361,515.775818 
	C643.684692,519.281494 635.043213,526.108582 626.751465,533.397339 
	C618.049133,541.046997 608.784973,547.698730 597.430481,550.925903 
	C578.508667,556.303833 560.211792,549.878723 548.587952,533.692627 
	C538.312988,519.384583 538.651367,499.686798 549.744995,484.118164 
	C568.119751,458.331268 593.185364,441.637390 622.940735,431.959625 
	C664.867432,418.323090 707.276672,416.894623 749.899292,428.774017 
	C798.815063,442.407349 831.362671,483.708801 831.942566,534.551331 
	C832.600037,592.194580 832.200073,649.849976 832.259888,708.000122 
M720.690857,671.138000 
	C726.037659,668.469238 731.612976,666.160706 736.632751,662.976379 
	C739.066223,661.432739 741.898621,658.342285 742.066284,655.789062 
	C742.701965,646.106323 742.322205,636.356995 742.322205,626.429871 
	C741.298706,626.279907 740.335876,626.047607 739.365417,626.009949 
	C711.694153,624.936462 684.093628,625.515564 656.830872,630.886230 
	C643.914978,633.430603 630.963806,636.567749 620.582520,645.309875 
	C617.063721,648.273132 613.744812,652.458801 612.325073,656.745056 
	C608.071167,669.587830 614.288086,678.358521 628.913818,680.924133 
	C660.145508,686.402588 690.550110,683.441956 720.690857,671.138000 
z"/>
<path fill="#FFFEFE" opacity="1.000000" stroke="none" 
	d="
M389.097260,545.000122 
	C389.096802,604.833191 389.045227,664.166382 389.140137,723.499329 
	C389.158569,735.023926 386.753052,745.627502 379.485077,754.822937 
	C360.117554,779.326660 319.585480,775.937866 304.349609,748.654968 
	C299.723145,740.370422 298.121674,731.501953 298.115967,722.241333 
	C298.076660,658.408264 298.095093,594.575195 298.094971,530.742126 
	C298.094971,528.750000 298.095001,526.757812 298.095001,524.125183 
	C296.143036,524.025696 294.397339,523.873352 292.650452,523.858337 
	C283.485077,523.779602 274.306580,524.026184 265.156372,523.622314 
	C242.613022,522.627258 229.929214,511.984497 224.588135,490.032593 
	C220.623825,473.739258 228.525040,451.632111 242.017426,442.404724 
	C250.911652,436.321991 261.328125,435.532288 271.711090,435.299683 
	C280.195648,435.109558 288.687805,435.260956 298.095093,435.260956 
	C298.095093,431.843414 298.064331,428.764618 298.100128,425.686646 
	C298.313904,407.304749 299.685669,389.076355 305.335327,371.417542 
	C315.536316,339.532928 336.562347,317.938782 368.013458,306.958221 
	C399.259155,296.049377 431.721283,294.177826 464.245636,298.021637 
	C487.683258,300.791626 500.051147,317.614929 499.260132,341.360718 
	C498.725220,357.418365 493.727905,370.776428 478.285522,378.245422 
	C469.856781,382.322144 460.838959,383.488892 451.574707,383.674011 
	C440.592285,383.893433 429.560211,383.849091 418.649475,384.928253 
	C401.050995,386.668884 390.904724,397.313293 389.532593,414.839447 
	C389.016968,421.425446 389.449005,428.085602 389.449005,435.199890 
	C391.515594,435.305450 393.449921,435.493927 395.383789,435.489319 
	C418.383575,435.434326 441.383270,435.323364 464.383057,435.285156 
	C476.894806,435.264343 488.640015,437.800598 498.000305,446.804901 
	C511.045563,459.354004 515.003784,479.927826 508.540710,497.149200 
	C502.104462,514.299133 489.832581,523.122742 471.797821,523.551819 
	C453.141754,523.995667 434.469940,523.786621 415.804962,523.843018 
	C407.156067,523.869141 398.507080,523.847473 389.097260,523.847473 
	C389.097260,530.966431 389.097260,537.733337 389.097260,545.000122 
z"/>
<path fill="#FF3F71" opacity="1.000000" stroke="none" 
	d="
M720.340576,671.294983 
	C690.550110,683.441956 660.145508,686.402588 628.913818,680.924133 
	C614.288086,678.358521 608.071167,669.587830 612.325073,656.745056 
	C613.744812,652.458801 617.063721,648.273132 620.582520,645.309875 
	C630.963806,636.567749 643.914978,633.430603 656.830872,630.886230 
	C684.093628,625.515564 711.694153,624.936462 739.365417,626.009949 
	C740.335876,626.047607 741.298706,626.279907 742.322205,626.429871 
	C742.322205,636.356995 742.701965,646.106323 742.066284,655.789062 
	C741.898621,658.342285 739.066223,661.432739 736.632751,662.976379 
	C731.612976,666.160706 726.037659,668.469238 720.340576,671.294983 
z"/>
</svg>